<svg width="22" height="22" viewBox="0 0 22 22" fill="none" xmlns="http://www.w3.org/2000/svg">
<path fill-rule="evenodd" clip-rule="evenodd" d="M19.5284 2.31594C19.2813 2.10686 18.9649 1.9945 18.6392 2.00017L18.6213 2.00033H16.9268V11.0002H18.6213L18.6392 11.0003C18.9649 11.006 19.2813 10.8936 19.5284 10.6846C19.7607 10.4881 19.9166 10.219 19.9707 9.92333V3.07718C19.9166 2.78146 19.7607 2.51242 19.5284 2.31594ZM14.8975 11.788L11.2369 19.9054C10.9311 19.8093 10.6499 19.6421 10.4187 19.4143C10.0382 19.0392 9.82437 18.5305 9.82437 18.0001V14.0001C9.82437 13.4479 9.3701 13.0001 8.80973 13.0001H3.06689L3.0554 13.0002C2.90832 13.0019 2.76264 12.972 2.62845 12.9126C2.49426 12.8532 2.37477 12.7658 2.27826 12.6565C2.18175 12.5471 2.11052 12.4183 2.06951 12.2791C2.02855 12.1401 2.01872 11.9939 2.04067 11.8508C2.04064 11.851 2.0407 11.8506 2.04067 11.8508L3.44098 2.85025C3.47767 2.6118 3.60057 2.39445 3.78702 2.23826C3.97347 2.08206 4.21092 1.99754 4.45562 2.00026L14.8975 2.00033V11.788ZM18.6131 0.000361632C19.4325 -0.0115716 20.2282 0.272184 20.8502 0.79837C21.4746 1.32665 21.8805 2.06251 21.9908 2.86627C21.9969 2.9107 22 2.95548 22 3.00031V10.0002C22 10.045 21.9969 10.0898 21.9908 10.1342C21.8805 10.938 21.4746 11.6739 20.8502 12.2021C20.2282 12.7283 19.4325 13.0121 18.6131 13.0001H16.5716L12.7808 21.4061C12.618 21.7673 12.2546 22 11.8536 22C10.7772 22 9.74494 21.5786 8.98381 20.8284C8.22269 20.0783 7.79509 19.0609 7.79509 18.0001V15.0001H3.07208C2.63299 15.0041 2.1982 14.9144 1.79754 14.7372C1.39498 14.5592 1.0365 14.297 0.746959 13.9688C0.457416 13.6406 0.243729 13.2543 0.120703 12.8367C-0.00232333 12.4191 -0.0317481 11.9801 0.0344685 11.5501L1.43465 2.55038C1.43469 2.55008 1.4346 2.55068 1.43465 2.55038C1.54489 1.83539 1.91364 1.1828 2.47276 0.714404C3.03052 0.247157 3.74039 -0.00629771 4.47224 0.000361632H18.6131Z" fill="currentColor" />
</svg>
