<svg width="22" height="22" viewBox="0 0 22 22" fill="none" xmlns="http://www.w3.org/2000/svg">
<path fill-rule="evenodd" clip-rule="evenodd" d="M9.21918 0.593858C9.38203 0.232732 9.74539 0 10.1464 0C11.2228 0 12.2551 0.421425 13.0162 1.17157C13.7773 1.92171 14.2049 2.93912 14.2049 3.99998V6.99996H18.9279C19.367 6.99595 19.8018 7.08563 20.2025 7.26285C20.605 7.44092 20.9635 7.70312 21.253 8.03129C21.5426 8.35946 21.7563 8.74574 21.8793 9.16339C22.0023 9.58103 22.0317 10.02 21.9655 10.45L20.5654 19.4498C20.5653 19.4501 20.5654 19.4496 20.5654 19.4498C20.4551 20.1649 20.0864 20.8174 19.5272 21.2858C18.9695 21.7531 18.2595 22.0066 17.5277 21.9999H3.04391C2.23661 21.9999 1.46238 21.6838 0.89154 21.1212C0.320697 20.5586 0 19.7955 0 18.9999V11.9999C0 11.2043 0.320697 10.4412 0.89154 9.87862C1.46238 9.31602 2.23661 8.99995 3.04391 8.99995H5.42843L9.21918 0.593858ZM7.10245 10.2122L10.7631 2.09459C11.0689 2.19074 11.3501 2.35793 11.5813 2.58577C11.9618 2.96084 12.1756 3.46955 12.1756 3.99998V7.99995C12.1756 8.55223 12.6299 8.99995 13.1903 8.99995H18.9331L18.9446 8.99988C19.0917 8.99824 19.2374 9.02813 19.3715 9.08749C19.5057 9.14685 19.6252 9.23425 19.7217 9.34364C19.8183 9.45303 19.8895 9.58179 19.9305 9.721C19.9715 9.86009 19.9813 10.0063 19.9593 10.1495C19.9593 10.1493 19.9593 10.1496 19.9593 10.1495L18.559 19.15C18.5223 19.3884 18.3994 19.6058 18.213 19.7619C18.0265 19.9181 17.7891 20.0027 17.5444 19.9999L7.10245 19.9999V10.2122ZM5.07318 19.9999V10.9999H3.04391C2.77481 10.9999 2.51673 11.1053 2.32645 11.2928C2.13617 11.4804 2.02927 11.7347 2.02927 11.9999V18.9999C2.02927 19.2651 2.13617 19.5195 2.32645 19.707C2.51673 19.8945 2.77481 19.9999 3.04391 19.9999H5.07318Z" fill="currentColor" />
</svg>
